<mxfile host="app.diagrams.net" modified="2024-03-22T09:01:08.629Z" agent="Mozilla/5.0 (Windows NT 10.0; Win64; x64; rv:124.0) Gecko/20100101 Firefox/124.0" version="24.0.7" etag="td5k5spZqdaQRCNJr7G5" type="github">
  <diagram name="Seite-1" id="AIeC6o2E7zESYTgqF4uT">
    <mxGraphModel>
      <root>
        <mxCell id="0" />
        <mxCell id="1" parent="0" />
      </root>
    </mxGraphModel>
  </diagram>
</mxfile>
